<mxfile host="Electron" agent="Mozilla/5.0 (Windows NT 10.0; Win64; x64) AppleWebKit/537.36 (KHTML, like Gecko) draw.io/24.7.5 Chrome/126.0.6478.183 Electron/31.3.0 Safari/537.36" version="24.7.5">
  <diagram name="Page-1" id="d97oD7kQA536C8rqxNet">
    <mxGraphModel dx="396" dy="594" grid="1" gridSize="10" guides="1" tooltips="1" connect="1" arrows="1" fold="1" page="1" pageScale="1" pageWidth="827" pageHeight="1169" math="0" shadow="0">
      <root>
        <mxCell id="0" />
        <mxCell id="1" parent="0" />
        <mxCell id="rFFIZHCp3ihWCyjWagxx-2" value="Product Agent" style="swimlane;whiteSpace=wrap;html=1;startSize=20;" parent="1" vertex="1">
          <mxGeometry x="211.25" width="190" height="770" as="geometry" />
        </mxCell>
        <mxCell id="rFFIZHCp3ihWCyjWagxx-25" style="edgeStyle=orthogonalEdgeStyle;rounded=0;orthogonalLoop=1;jettySize=auto;html=1;endArrow=open;endFill=0;" parent="rFFIZHCp3ihWCyjWagxx-2" source="rFFIZHCp3ihWCyjWagxx-9" target="rFFIZHCp3ihWCyjWagxx-24" edge="1">
          <mxGeometry relative="1" as="geometry">
            <mxPoint x="95" y="110" as="targetPoint" />
            <Array as="points">
              <mxPoint x="133" y="60" />
              <mxPoint x="95" y="60" />
            </Array>
          </mxGeometry>
        </mxCell>
        <mxCell id="rFFIZHCp3ihWCyjWagxx-9" value="setup" style="rounded=0;whiteSpace=wrap;html=1;" parent="rFFIZHCp3ihWCyjWagxx-2" vertex="1">
          <mxGeometry x="105" y="30" width="55" height="20" as="geometry" />
        </mxCell>
        <mxCell id="rFFIZHCp3ihWCyjWagxx-24" value="Add Behaviour executeNextSkill" style="rounded=0;whiteSpace=wrap;html=1;" parent="rFFIZHCp3ihWCyjWagxx-2" vertex="1">
          <mxGeometry x="43.12" y="70" width="103.75" height="30" as="geometry" />
        </mxCell>
        <mxCell id="Sw5ciTDePq8-OVaIoDVg-1" style="edgeStyle=orthogonalEdgeStyle;rounded=0;orthogonalLoop=1;jettySize=auto;html=1;endArrow=open;endFill=0;" edge="1" parent="rFFIZHCp3ihWCyjWagxx-2" source="rFFIZHCp3ihWCyjWagxx-28" target="rFFIZHCp3ihWCyjWagxx-36">
          <mxGeometry relative="1" as="geometry" />
        </mxCell>
        <mxCell id="rFFIZHCp3ihWCyjWagxx-28" value="&lt;div&gt;DFInteraction&lt;/div&gt;SearchInDFBySkill" style="rounded=0;whiteSpace=wrap;html=1;" parent="rFFIZHCp3ihWCyjWagxx-2" vertex="1">
          <mxGeometry x="42.37" y="160" width="104" height="30" as="geometry" />
        </mxCell>
        <mxCell id="rFFIZHCp3ihWCyjWagxx-26" value="action" style="rounded=0;whiteSpace=wrap;html=1;" parent="rFFIZHCp3ihWCyjWagxx-2" vertex="1">
          <mxGeometry x="69.99" y="120" width="50" height="20" as="geometry" />
        </mxCell>
        <mxCell id="rFFIZHCp3ihWCyjWagxx-27" style="edgeStyle=orthogonalEdgeStyle;rounded=0;orthogonalLoop=1;jettySize=auto;html=1;endArrow=open;endFill=0;exitX=0.5;exitY=1;exitDx=0;exitDy=0;entryX=0.5;entryY=0;entryDx=0;entryDy=0;" parent="rFFIZHCp3ihWCyjWagxx-2" source="rFFIZHCp3ihWCyjWagxx-24" target="rFFIZHCp3ihWCyjWagxx-26" edge="1">
          <mxGeometry relative="1" as="geometry">
            <mxPoint x="95.0333333333333" y="135" as="sourcePoint" />
            <Array as="points" />
          </mxGeometry>
        </mxCell>
        <mxCell id="rFFIZHCp3ihWCyjWagxx-29" style="edgeStyle=orthogonalEdgeStyle;rounded=0;orthogonalLoop=1;jettySize=auto;html=1;endArrow=open;endFill=0;" parent="rFFIZHCp3ihWCyjWagxx-2" source="rFFIZHCp3ihWCyjWagxx-26" target="rFFIZHCp3ihWCyjWagxx-28" edge="1">
          <mxGeometry relative="1" as="geometry">
            <mxPoint x="98.74" y="200" as="targetPoint" />
            <Array as="points" />
          </mxGeometry>
        </mxCell>
        <mxCell id="rFFIZHCp3ihWCyjWagxx-36" value="Add Behaviour contractNetInitiator" style="rounded=0;whiteSpace=wrap;html=1;" parent="rFFIZHCp3ihWCyjWagxx-2" vertex="1">
          <mxGeometry x="38" y="210" width="114" height="30" as="geometry" />
        </mxCell>
        <mxCell id="rFFIZHCp3ihWCyjWagxx-38" value="&lt;div&gt;contractNetInitiator:&lt;/div&gt;handleAllResponses" style="rounded=0;whiteSpace=wrap;html=1;" parent="rFFIZHCp3ihWCyjWagxx-2" vertex="1">
          <mxGeometry x="34" y="270" width="122" height="30" as="geometry" />
        </mxCell>
        <mxCell id="rFFIZHCp3ihWCyjWagxx-3" value="" style="ellipse;html=1;fillColor=#000000;" parent="rFFIZHCp3ihWCyjWagxx-2" vertex="1">
          <mxGeometry x="8.5" y="25" width="30" height="30" as="geometry" />
        </mxCell>
        <mxCell id="rFFIZHCp3ihWCyjWagxx-5" style="edgeStyle=orthogonalEdgeStyle;rounded=0;orthogonalLoop=1;jettySize=auto;html=1;endArrow=open;endFill=0;" parent="rFFIZHCp3ihWCyjWagxx-2" source="rFFIZHCp3ihWCyjWagxx-3" target="rFFIZHCp3ihWCyjWagxx-9" edge="1">
          <mxGeometry relative="1" as="geometry">
            <mxPoint x="-101.2295918367347" y="90" as="targetPoint" />
            <Array as="points">
              <mxPoint x="59" y="40" />
              <mxPoint x="59" y="40" />
            </Array>
          </mxGeometry>
        </mxCell>
        <mxCell id="Sw5ciTDePq8-OVaIoDVg-6" style="edgeStyle=orthogonalEdgeStyle;rounded=0;orthogonalLoop=1;jettySize=auto;html=1;endArrow=open;endFill=0;" edge="1" parent="rFFIZHCp3ihWCyjWagxx-2" source="Sw5ciTDePq8-OVaIoDVg-3" target="Sw5ciTDePq8-OVaIoDVg-5">
          <mxGeometry relative="1" as="geometry" />
        </mxCell>
        <mxCell id="Sw5ciTDePq8-OVaIoDVg-3" value="contractNetInitiator:&lt;div&gt;handleInform&lt;/div&gt;" style="rounded=0;whiteSpace=wrap;html=1;" vertex="1" parent="rFFIZHCp3ihWCyjWagxx-2">
          <mxGeometry x="37.870000000000005" y="310" width="113" height="30" as="geometry" />
        </mxCell>
        <mxCell id="Sw5ciTDePq8-OVaIoDVg-5" value="Add Behaviour requestTransportMove" style="rounded=0;whiteSpace=wrap;html=1;" vertex="1" parent="rFFIZHCp3ihWCyjWagxx-2">
          <mxGeometry x="28.74" y="360" width="131.25" height="30" as="geometry" />
        </mxCell>
        <mxCell id="Sw5ciTDePq8-OVaIoDVg-14" style="edgeStyle=orthogonalEdgeStyle;rounded=0;orthogonalLoop=1;jettySize=auto;html=1;endArrow=open;endFill=0;" edge="1" parent="rFFIZHCp3ihWCyjWagxx-2" source="Sw5ciTDePq8-OVaIoDVg-9" target="Sw5ciTDePq8-OVaIoDVg-13">
          <mxGeometry relative="1" as="geometry" />
        </mxCell>
        <mxCell id="Sw5ciTDePq8-OVaIoDVg-9" value="requestTransportMove:&lt;div&gt;handleInform&lt;/div&gt;" style="rounded=0;whiteSpace=wrap;html=1;" vertex="1" parent="rFFIZHCp3ihWCyjWagxx-2">
          <mxGeometry x="28.75" y="400" width="131.25" height="30" as="geometry" />
        </mxCell>
        <mxCell id="Sw5ciTDePq8-OVaIoDVg-13" value="Add Behaviour&lt;div&gt;requestStationSkill&lt;/div&gt;" style="rounded=0;whiteSpace=wrap;html=1;" vertex="1" parent="rFFIZHCp3ihWCyjWagxx-2">
          <mxGeometry x="28.75" y="450" width="131.25" height="30" as="geometry" />
        </mxCell>
        <mxCell id="Sw5ciTDePq8-OVaIoDVg-28" style="edgeStyle=orthogonalEdgeStyle;rounded=0;orthogonalLoop=1;jettySize=auto;html=1;entryX=0.5;entryY=0;entryDx=0;entryDy=0;" edge="1" parent="rFFIZHCp3ihWCyjWagxx-2">
          <mxGeometry relative="1" as="geometry">
            <mxPoint x="94.92000000000002" y="550" as="sourcePoint" />
            <mxPoint x="94.94" y="585" as="targetPoint" />
            <Array as="points">
              <mxPoint x="95" y="570" />
              <mxPoint x="95" y="570" />
            </Array>
          </mxGeometry>
        </mxCell>
        <mxCell id="Sw5ciTDePq8-OVaIoDVg-29" value="Finished?" style="edgeLabel;html=1;align=center;verticalAlign=middle;resizable=0;points=[];" vertex="1" connectable="0" parent="Sw5ciTDePq8-OVaIoDVg-28">
          <mxGeometry x="-0.4844" y="-1" relative="1" as="geometry">
            <mxPoint x="1" y="3" as="offset" />
          </mxGeometry>
        </mxCell>
        <mxCell id="Sw5ciTDePq8-OVaIoDVg-23" value="requestStationSkill:&lt;div&gt;handleInform&lt;/div&gt;" style="rounded=0;whiteSpace=wrap;html=1;" vertex="1" parent="rFFIZHCp3ihWCyjWagxx-2">
          <mxGeometry x="37.870000000000005" y="520" width="113" height="30" as="geometry" />
        </mxCell>
        <mxCell id="Sw5ciTDePq8-OVaIoDVg-30" style="edgeStyle=orthogonalEdgeStyle;rounded=0;orthogonalLoop=1;jettySize=auto;html=1;endArrow=open;endFill=0;" edge="1" parent="rFFIZHCp3ihWCyjWagxx-2" source="Sw5ciTDePq8-OVaIoDVg-27" target="rFFIZHCp3ihWCyjWagxx-24">
          <mxGeometry relative="1" as="geometry">
            <Array as="points">
              <mxPoint x="19" y="595" />
              <mxPoint x="19" y="85" />
            </Array>
          </mxGeometry>
        </mxCell>
        <mxCell id="Sw5ciTDePq8-OVaIoDVg-31" value="No" style="edgeLabel;html=1;align=center;verticalAlign=middle;resizable=0;points=[];" vertex="1" connectable="0" parent="Sw5ciTDePq8-OVaIoDVg-30">
          <mxGeometry x="-0.8686" relative="1" as="geometry">
            <mxPoint x="23" as="offset" />
          </mxGeometry>
        </mxCell>
        <mxCell id="Sw5ciTDePq8-OVaIoDVg-32" style="edgeStyle=orthogonalEdgeStyle;rounded=0;orthogonalLoop=1;jettySize=auto;html=1;" edge="1" parent="rFFIZHCp3ihWCyjWagxx-2" source="Sw5ciTDePq8-OVaIoDVg-27" target="Sw5ciTDePq8-OVaIoDVg-47">
          <mxGeometry relative="1" as="geometry">
            <mxPoint x="98.75" y="640" as="targetPoint" />
            <Array as="points" />
          </mxGeometry>
        </mxCell>
        <mxCell id="Sw5ciTDePq8-OVaIoDVg-33" value="Yes" style="edgeLabel;html=1;align=center;verticalAlign=middle;resizable=0;points=[];" vertex="1" connectable="0" parent="Sw5ciTDePq8-OVaIoDVg-32">
          <mxGeometry x="-0.056" relative="1" as="geometry">
            <mxPoint x="-1" y="-7" as="offset" />
          </mxGeometry>
        </mxCell>
        <mxCell id="Sw5ciTDePq8-OVaIoDVg-27" value="" style="rhombus;whiteSpace=wrap;html=1;" vertex="1" parent="rFFIZHCp3ihWCyjWagxx-2">
          <mxGeometry x="85" y="585" width="20" height="20" as="geometry" />
        </mxCell>
        <mxCell id="Sw5ciTDePq8-OVaIoDVg-47" value="Add Behaviour requestTransportMove" style="rounded=0;whiteSpace=wrap;html=1;" vertex="1" parent="rFFIZHCp3ihWCyjWagxx-2">
          <mxGeometry x="29.38" y="640" width="131.25" height="30" as="geometry" />
        </mxCell>
        <mxCell id="Sw5ciTDePq8-OVaIoDVg-51" value="requestTransportMove:&lt;div&gt;handleInform&lt;/div&gt;" style="rounded=0;whiteSpace=wrap;html=1;" vertex="1" parent="rFFIZHCp3ihWCyjWagxx-2">
          <mxGeometry x="29.379999999999995" y="680" width="131.25" height="30" as="geometry" />
        </mxCell>
        <mxCell id="Sw5ciTDePq8-OVaIoDVg-49" value="" style="ellipse;html=1;shape=endState;fillColor=#000000;" vertex="1" parent="rFFIZHCp3ihWCyjWagxx-2">
          <mxGeometry x="79.37" y="730" width="30" height="30" as="geometry" />
        </mxCell>
        <mxCell id="Sw5ciTDePq8-OVaIoDVg-50" style="edgeStyle=orthogonalEdgeStyle;rounded=0;orthogonalLoop=1;jettySize=auto;html=1;endArrow=open;endFill=0;" edge="1" parent="rFFIZHCp3ihWCyjWagxx-2" source="Sw5ciTDePq8-OVaIoDVg-51" target="Sw5ciTDePq8-OVaIoDVg-49">
          <mxGeometry relative="1" as="geometry" />
        </mxCell>
        <mxCell id="-P-X-p9z3G-V1xCP2slL-1" value="Resource Agent" style="swimlane;whiteSpace=wrap;html=1;startSize=20;" parent="1" vertex="1">
          <mxGeometry x="401.25" width="188.75" height="770" as="geometry" />
        </mxCell>
        <mxCell id="-P-X-p9z3G-V1xCP2slL-4" value="&lt;div&gt;contractNetResponder:&lt;/div&gt;handleCfp" style="rounded=0;whiteSpace=wrap;html=1;" parent="-P-X-p9z3G-V1xCP2slL-1" vertex="1">
          <mxGeometry x="29.38" y="207.5" width="130" height="35" as="geometry" />
        </mxCell>
        <mxCell id="-P-X-p9z3G-V1xCP2slL-8" value="contractNetResponder:&lt;div&gt;handleAcceptProposal&lt;/div&gt;" style="rounded=0;whiteSpace=wrap;html=1;" parent="-P-X-p9z3G-V1xCP2slL-1" vertex="1">
          <mxGeometry x="24.06" y="270" width="140.63" height="30" as="geometry" />
        </mxCell>
        <mxCell id="Sw5ciTDePq8-OVaIoDVg-22" style="edgeStyle=orthogonalEdgeStyle;rounded=0;orthogonalLoop=1;jettySize=auto;html=1;endArrow=open;endFill=0;" edge="1" parent="-P-X-p9z3G-V1xCP2slL-1" source="Sw5ciTDePq8-OVaIoDVg-15" target="Sw5ciTDePq8-OVaIoDVg-20">
          <mxGeometry relative="1" as="geometry" />
        </mxCell>
        <mxCell id="Sw5ciTDePq8-OVaIoDVg-15" value="requestResponder: prepareResultNotification" style="rounded=0;whiteSpace=wrap;html=1;" vertex="1" parent="-P-X-p9z3G-V1xCP2slL-1">
          <mxGeometry x="24.379999999999995" y="500" width="140" height="30" as="geometry" />
        </mxCell>
        <mxCell id="Sw5ciTDePq8-OVaIoDVg-17" style="edgeStyle=orthogonalEdgeStyle;rounded=0;orthogonalLoop=1;jettySize=auto;html=1;endArrow=open;endFill=0;" edge="1" parent="-P-X-p9z3G-V1xCP2slL-1" source="Sw5ciTDePq8-OVaIoDVg-16" target="Sw5ciTDePq8-OVaIoDVg-15">
          <mxGeometry relative="1" as="geometry" />
        </mxCell>
        <mxCell id="Sw5ciTDePq8-OVaIoDVg-16" value="requestResponder:&lt;div&gt;handleRequest&lt;/div&gt;" style="rounded=0;whiteSpace=wrap;html=1;" vertex="1" parent="-P-X-p9z3G-V1xCP2slL-1">
          <mxGeometry x="37.65999999999997" y="450" width="113.44" height="30" as="geometry" />
        </mxCell>
        <mxCell id="Sw5ciTDePq8-OVaIoDVg-19" style="edgeStyle=orthogonalEdgeStyle;rounded=0;orthogonalLoop=1;jettySize=auto;html=1;endArrow=open;endFill=0;" edge="1" parent="-P-X-p9z3G-V1xCP2slL-1" source="Sw5ciTDePq8-OVaIoDVg-20" target="Sw5ciTDePq8-OVaIoDVg-21">
          <mxGeometry relative="1" as="geometry">
            <mxPoint x="94.38" y="610" as="targetPoint" />
            <Array as="points">
              <mxPoint x="93.38" y="560" />
              <mxPoint x="93.38" y="560" />
            </Array>
          </mxGeometry>
        </mxCell>
        <mxCell id="Sw5ciTDePq8-OVaIoDVg-20" value="ModuleEngine: executeSkill" style="rounded=0;whiteSpace=wrap;html=1;" vertex="1" parent="-P-X-p9z3G-V1xCP2slL-1">
          <mxGeometry x="48.379999999999995" y="550" width="92" height="30" as="geometry" />
        </mxCell>
        <mxCell id="Sw5ciTDePq8-OVaIoDVg-21" value="LinkLibrary: ExecuteSkill" style="rounded=0;whiteSpace=wrap;html=1;" vertex="1" parent="-P-X-p9z3G-V1xCP2slL-1">
          <mxGeometry x="53.02999999999997" y="600" width="82.69" height="30" as="geometry" />
        </mxCell>
        <mxCell id="-P-X-p9z3G-V1xCP2slL-25" value="Transport Agent" style="swimlane;whiteSpace=wrap;html=1;startSize=20;" parent="1" vertex="1">
          <mxGeometry x="590" width="190" height="770" as="geometry" />
        </mxCell>
        <mxCell id="-P-X-p9z3G-V1xCP2slL-28" value="requestResponder:&lt;div&gt;handleRequest&lt;/div&gt;" style="rounded=0;whiteSpace=wrap;html=1;" parent="-P-X-p9z3G-V1xCP2slL-25" vertex="1">
          <mxGeometry x="38.290000000000006" y="40" width="113.44" height="30" as="geometry" />
        </mxCell>
        <mxCell id="-P-X-p9z3G-V1xCP2slL-29" style="edgeStyle=orthogonalEdgeStyle;rounded=0;orthogonalLoop=1;jettySize=auto;html=1;endArrow=open;endFill=0;" parent="-P-X-p9z3G-V1xCP2slL-25" source="-P-X-p9z3G-V1xCP2slL-31" target="Sw5ciTDePq8-OVaIoDVg-8" edge="1">
          <mxGeometry relative="1" as="geometry">
            <mxPoint x="95" y="200" as="targetPoint" />
            <Array as="points">
              <mxPoint x="94" y="150" />
              <mxPoint x="94" y="150" />
            </Array>
          </mxGeometry>
        </mxCell>
        <mxCell id="-P-X-p9z3G-V1xCP2slL-31" value="ModuleEngine: executeSkill" style="rounded=0;whiteSpace=wrap;html=1;" parent="-P-X-p9z3G-V1xCP2slL-25" vertex="1">
          <mxGeometry x="49" y="140" width="92" height="30" as="geometry" />
        </mxCell>
        <mxCell id="-P-X-p9z3G-V1xCP2slL-32" value="requestResponder: prepareResultNotification" style="rounded=0;whiteSpace=wrap;html=1;" parent="-P-X-p9z3G-V1xCP2slL-25" vertex="1">
          <mxGeometry x="25" y="90" width="140" height="30" as="geometry" />
        </mxCell>
        <mxCell id="-P-X-p9z3G-V1xCP2slL-33" style="edgeStyle=orthogonalEdgeStyle;rounded=0;orthogonalLoop=1;jettySize=auto;html=1;endArrow=open;endFill=0;exitX=0.5;exitY=1;exitDx=0;exitDy=0;entryX=0.5;entryY=0;entryDx=0;entryDy=0;" parent="-P-X-p9z3G-V1xCP2slL-25" source="-P-X-p9z3G-V1xCP2slL-28" target="-P-X-p9z3G-V1xCP2slL-32" edge="1">
          <mxGeometry relative="1" as="geometry">
            <mxPoint x="95.0333333333333" y="135" as="sourcePoint" />
            <Array as="points" />
          </mxGeometry>
        </mxCell>
        <mxCell id="-P-X-p9z3G-V1xCP2slL-34" style="edgeStyle=orthogonalEdgeStyle;rounded=0;orthogonalLoop=1;jettySize=auto;html=1;endArrow=open;endFill=0;" parent="-P-X-p9z3G-V1xCP2slL-25" source="-P-X-p9z3G-V1xCP2slL-32" target="-P-X-p9z3G-V1xCP2slL-31" edge="1">
          <mxGeometry relative="1" as="geometry">
            <mxPoint x="98.75" y="190" as="targetPoint" />
            <Array as="points" />
          </mxGeometry>
        </mxCell>
        <mxCell id="Sw5ciTDePq8-OVaIoDVg-8" value="LinkLibrary: ExecuteSkill" style="rounded=0;whiteSpace=wrap;html=1;" vertex="1" parent="-P-X-p9z3G-V1xCP2slL-25">
          <mxGeometry x="53.65" y="190" width="82.69" height="30" as="geometry" />
        </mxCell>
        <mxCell id="Sw5ciTDePq8-OVaIoDVg-40" value="requestResponder:&lt;div&gt;handleRequest&lt;/div&gt;" style="rounded=0;whiteSpace=wrap;html=1;" vertex="1" parent="-P-X-p9z3G-V1xCP2slL-25">
          <mxGeometry x="38.28999999999998" y="450" width="113.44" height="30" as="geometry" />
        </mxCell>
        <mxCell id="Sw5ciTDePq8-OVaIoDVg-41" style="edgeStyle=orthogonalEdgeStyle;rounded=0;orthogonalLoop=1;jettySize=auto;html=1;endArrow=open;endFill=0;" edge="1" parent="-P-X-p9z3G-V1xCP2slL-25" source="Sw5ciTDePq8-OVaIoDVg-42" target="Sw5ciTDePq8-OVaIoDVg-46">
          <mxGeometry relative="1" as="geometry">
            <mxPoint x="95.00000000000001" y="610" as="targetPoint" />
            <Array as="points">
              <mxPoint x="94.00000000000001" y="560" />
              <mxPoint x="94.00000000000001" y="560" />
            </Array>
          </mxGeometry>
        </mxCell>
        <mxCell id="Sw5ciTDePq8-OVaIoDVg-42" value="ModuleEngine: executeSkill" style="rounded=0;whiteSpace=wrap;html=1;" vertex="1" parent="-P-X-p9z3G-V1xCP2slL-25">
          <mxGeometry x="49.000000000000014" y="550" width="92" height="30" as="geometry" />
        </mxCell>
        <mxCell id="Sw5ciTDePq8-OVaIoDVg-43" value="requestResponder: prepareResultNotification" style="rounded=0;whiteSpace=wrap;html=1;" vertex="1" parent="-P-X-p9z3G-V1xCP2slL-25">
          <mxGeometry x="25.000000000000018" y="500" width="140" height="30" as="geometry" />
        </mxCell>
        <mxCell id="Sw5ciTDePq8-OVaIoDVg-44" style="edgeStyle=orthogonalEdgeStyle;rounded=0;orthogonalLoop=1;jettySize=auto;html=1;endArrow=open;endFill=0;exitX=0.5;exitY=1;exitDx=0;exitDy=0;entryX=0.5;entryY=0;entryDx=0;entryDy=0;" edge="1" parent="-P-X-p9z3G-V1xCP2slL-25" source="Sw5ciTDePq8-OVaIoDVg-40" target="Sw5ciTDePq8-OVaIoDVg-43">
          <mxGeometry relative="1" as="geometry">
            <mxPoint x="95.03333333333332" y="545" as="sourcePoint" />
            <Array as="points" />
          </mxGeometry>
        </mxCell>
        <mxCell id="Sw5ciTDePq8-OVaIoDVg-45" style="edgeStyle=orthogonalEdgeStyle;rounded=0;orthogonalLoop=1;jettySize=auto;html=1;endArrow=open;endFill=0;" edge="1" parent="-P-X-p9z3G-V1xCP2slL-25" source="Sw5ciTDePq8-OVaIoDVg-43" target="Sw5ciTDePq8-OVaIoDVg-42">
          <mxGeometry relative="1" as="geometry">
            <mxPoint x="98.75000000000001" y="600" as="targetPoint" />
            <Array as="points" />
          </mxGeometry>
        </mxCell>
        <mxCell id="Sw5ciTDePq8-OVaIoDVg-46" value="LinkLibrary: ExecuteSkill" style="rounded=0;whiteSpace=wrap;html=1;" vertex="1" parent="-P-X-p9z3G-V1xCP2slL-25">
          <mxGeometry x="53.64999999999999" y="600" width="82.69" height="30" as="geometry" />
        </mxCell>
        <mxCell id="rFFIZHCp3ihWCyjWagxx-39" value="" style="edgeStyle=orthogonalEdgeStyle;rounded=0;orthogonalLoop=1;jettySize=auto;html=1;endArrow=open;endFill=0;" parent="1" source="rFFIZHCp3ihWCyjWagxx-36" target="-P-X-p9z3G-V1xCP2slL-4" edge="1">
          <mxGeometry relative="1" as="geometry">
            <mxPoint x="306" y="250" as="sourcePoint" />
            <mxPoint x="306" y="330" as="targetPoint" />
            <Array as="points">
              <mxPoint x="451" y="215" />
            </Array>
          </mxGeometry>
        </mxCell>
        <mxCell id="-P-X-p9z3G-V1xCP2slL-9" style="edgeStyle=orthogonalEdgeStyle;rounded=0;orthogonalLoop=1;jettySize=auto;html=1;endArrow=open;endFill=0;exitX=0.5;exitY=1;exitDx=0;exitDy=0;" parent="1" source="-P-X-p9z3G-V1xCP2slL-4" target="rFFIZHCp3ihWCyjWagxx-38" edge="1">
          <mxGeometry relative="1" as="geometry">
            <mxPoint x="496.2833333333333" y="135" as="sourcePoint" />
            <Array as="points">
              <mxPoint x="496" y="255" />
            </Array>
          </mxGeometry>
        </mxCell>
        <mxCell id="rFFIZHCp3ihWCyjWagxx-32" style="edgeStyle=orthogonalEdgeStyle;rounded=0;orthogonalLoop=1;jettySize=auto;html=1;endArrow=open;endFill=0;" parent="1" source="rFFIZHCp3ihWCyjWagxx-38" target="-P-X-p9z3G-V1xCP2slL-8" edge="1">
          <mxGeometry relative="1" as="geometry">
            <mxPoint x="160" y="400" as="targetPoint" />
            <Array as="points">
              <mxPoint x="306" y="270" />
            </Array>
          </mxGeometry>
        </mxCell>
        <mxCell id="Sw5ciTDePq8-OVaIoDVg-4" style="edgeStyle=orthogonalEdgeStyle;rounded=0;orthogonalLoop=1;jettySize=auto;html=1;endArrow=open;endFill=0;" edge="1" parent="1" source="-P-X-p9z3G-V1xCP2slL-8" target="Sw5ciTDePq8-OVaIoDVg-3">
          <mxGeometry relative="1" as="geometry">
            <Array as="points">
              <mxPoint x="496" y="325" />
            </Array>
          </mxGeometry>
        </mxCell>
        <mxCell id="Sw5ciTDePq8-OVaIoDVg-7" style="edgeStyle=orthogonalEdgeStyle;rounded=0;orthogonalLoop=1;jettySize=auto;html=1;endArrow=open;endFill=0;" edge="1" parent="1" source="Sw5ciTDePq8-OVaIoDVg-5" target="-P-X-p9z3G-V1xCP2slL-28">
          <mxGeometry relative="1" as="geometry">
            <Array as="points">
              <mxPoint x="580" y="375" />
              <mxPoint x="580" y="55" />
            </Array>
          </mxGeometry>
        </mxCell>
        <mxCell id="Sw5ciTDePq8-OVaIoDVg-10" style="edgeStyle=orthogonalEdgeStyle;rounded=0;orthogonalLoop=1;jettySize=auto;html=1;endArrow=open;endFill=0;" edge="1" parent="1" source="Sw5ciTDePq8-OVaIoDVg-8" target="Sw5ciTDePq8-OVaIoDVg-9">
          <mxGeometry relative="1" as="geometry">
            <Array as="points">
              <mxPoint x="685" y="415" />
            </Array>
          </mxGeometry>
        </mxCell>
        <mxCell id="Sw5ciTDePq8-OVaIoDVg-18" style="edgeStyle=orthogonalEdgeStyle;rounded=0;orthogonalLoop=1;jettySize=auto;html=1;endArrow=open;endFill=0;" edge="1" parent="1" source="Sw5ciTDePq8-OVaIoDVg-13" target="Sw5ciTDePq8-OVaIoDVg-16">
          <mxGeometry relative="1" as="geometry" />
        </mxCell>
        <mxCell id="Sw5ciTDePq8-OVaIoDVg-25" style="edgeStyle=orthogonalEdgeStyle;rounded=0;orthogonalLoop=1;jettySize=auto;html=1;entryX=1;entryY=0.5;entryDx=0;entryDy=0;endArrow=open;endFill=0;" edge="1" parent="1" source="Sw5ciTDePq8-OVaIoDVg-21" target="Sw5ciTDePq8-OVaIoDVg-23">
          <mxGeometry relative="1" as="geometry">
            <Array as="points">
              <mxPoint x="420" y="615" />
              <mxPoint x="420" y="535" />
            </Array>
          </mxGeometry>
        </mxCell>
        <mxCell id="Sw5ciTDePq8-OVaIoDVg-48" style="edgeStyle=orthogonalEdgeStyle;rounded=0;orthogonalLoop=1;jettySize=auto;html=1;endArrow=open;endFill=0;" edge="1" parent="1" source="Sw5ciTDePq8-OVaIoDVg-47" target="Sw5ciTDePq8-OVaIoDVg-40">
          <mxGeometry relative="1" as="geometry">
            <Array as="points">
              <mxPoint x="600" y="655" />
              <mxPoint x="600" y="465" />
            </Array>
          </mxGeometry>
        </mxCell>
        <mxCell id="Sw5ciTDePq8-OVaIoDVg-52" style="edgeStyle=orthogonalEdgeStyle;rounded=0;orthogonalLoop=1;jettySize=auto;html=1;endArrow=open;endFill=0;" edge="1" parent="1" source="Sw5ciTDePq8-OVaIoDVg-46" target="Sw5ciTDePq8-OVaIoDVg-51">
          <mxGeometry relative="1" as="geometry">
            <Array as="points">
              <mxPoint x="685" y="695" />
            </Array>
          </mxGeometry>
        </mxCell>
      </root>
    </mxGraphModel>
  </diagram>
</mxfile>
